# This file uses centimeters as units for non-parametric coordinates.

mtllib TV_mesh.mtl
g default
v -62.000000 -35.000000 0.000000
v 62.000000 -35.000000 0.000000
v 62.000000 36.000000 0.000000
v -62.000000 36.000000 0.000000
vt 0.101562 0.625000
vt 0.101562 0.000000
vt 0.460938 0.000000
vt 0.460938 0.625000
vn 0.000000 0.000000 1.000000
vn 0.000000 0.000000 1.000000
vn 0.000000 0.000000 1.000000
vn 0.000000 0.000000 1.000000
s off
g screen tv_geo
usemtl lambert3SG
f 1/1/1 2/2/2 3/3/3 4/4/4
g default
v -62.000000 -35.000000 1.000000
v 62.000000 -35.000000 1.000000
v -62.000000 36.000000 1.000000
v 62.000000 36.000000 1.000000
v -64.000000 38.000000 1.000000
v 64.000000 38.000000 1.000000
v 64.000000 38.000000 -1.000000
v -64.000000 38.000000 -1.000000
v -64.000000 -37.000000 -1.000000
v 64.000000 -37.000000 -1.000000
v 64.000000 -37.000000 1.000000
v -64.000000 -37.000000 1.000000
v -62.000000 -35.000000 0.000000
v 62.000000 -35.000000 0.000000
v 62.000000 36.000000 -0.000000
v -62.000000 36.000000 -0.000000
vt 0.070312 0.000000
vt 0.078125 0.000000
vt 0.078125 0.007812
vt 0.070312 0.007812
vt 0.070312 0.000000
vt 0.078125 0.000000
vt 0.078125 0.007812
vt 0.070312 0.007812
vt 0.093750 0.023438
vt 0.093750 0.031250
vt 0.085938 0.031250
vt 0.085938 0.023438
vt 0.070312 0.031250
vt 0.070312 0.023438
vt 0.078125 0.023438
vt 0.078125 0.031250
vt 0.070312 0.007812
vt 0.070312 0.000000
vt 0.078125 0.000000
vt 0.078125 0.007812
vt 0.070312 0.007812
vt 0.070312 0.000000
vt 0.078125 0.000000
vt 0.078125 0.007812
vt 0.078125 0.023438
vt 0.078125 0.015625
vt 0.085938 0.015625
vt 0.085938 0.023438
vt 0.085938 0.031250
vt 0.085938 0.039062
vt 0.078125 0.039062
vt 0.078125 0.031250
vt 0.046860 0.015640
vt 0.015594 0.015686
vt 0.031235 -0.000015
vt 0.031281 0.999989
vt 0.046890 0.570298
vt 0.000000 0.000011
vt 0.015686 0.984314
vt 0.062515 0.585952
vt 0.046860 0.570297
vt 0.000000 1.000000
vt 0.015686 0.015697
vt 0.031235 0.585952
vt 0.046890 0.015640
vt 0.031281 -0.000000
vt 0.015594 0.984303
vt 0.062515 -0.000015
vn 0.000000 1.000000 0.000000
vn 0.000000 1.000000 0.000000
vn 0.000000 1.000000 0.000000
vn 0.000000 1.000000 0.000000
vn 0.000000 -1.000000 0.000000
vn 0.000000 -1.000000 0.000000
vn 0.000000 -1.000000 0.000000
vn 0.000000 -1.000000 0.000000
vn 1.000000 0.000000 0.000000
vn 1.000000 0.000000 0.000000
vn 1.000000 0.000000 0.000000
vn 1.000000 0.000000 0.000000
vn -1.000000 0.000000 0.000000
vn -1.000000 0.000000 0.000000
vn -1.000000 0.000000 0.000000
vn -1.000000 0.000000 0.000000
vn 0.000000 0.000000 1.000000
vn 0.000000 0.000000 1.000000
vn 0.000000 0.000000 1.000000
vn 0.000000 0.000000 1.000000
vn 0.000000 0.000000 1.000000
vn 0.000000 0.000000 1.000000
vn 0.000000 0.000000 1.000000
vn 0.000000 0.000000 1.000000
vn 0.000000 1.000000 0.000000
vn 0.000000 1.000000 0.000000
vn 0.000000 1.000000 0.000000
vn 0.000000 1.000000 0.000000
vn -1.000000 -0.000000 0.000000
vn -1.000000 -0.000000 0.000000
vn -1.000000 -0.000000 0.000000
vn -1.000000 -0.000000 0.000000
vn 0.000000 -1.000000 0.000000
vn 0.000000 -1.000000 0.000000
vn 0.000000 -1.000000 0.000000
vn 0.000000 -1.000000 0.000000
vn 1.000000 -0.000000 0.000000
vn 1.000000 -0.000000 0.000000
vn 1.000000 -0.000000 0.000000
vn 1.000000 -0.000000 0.000000
s off
g tv_geo frame
usemtl lambert2SG
f 9/21/5 10/22/6 11/23/7 12/24/8
f 13/25/9 14/26/10 15/27/11 16/28/12
f 15/5/13 14/6/14 11/7/15 10/8/16
f 13/9/17 16/10/18 9/11/19 12/12/20
s 1
f 7/51/21 8/38/22 10/50/23 9/40/24
f 6/47/25 5/43/26 16/46/27 15/42/28
f 8/49/22 6/41/25 15/48/28 10/39/23
f 5/45/26 7/37/21 9/52/24 16/44/27
s off
f 5/29/29 6/30/30 18/31/31 17/32/32
f 6/13/33 8/14/34 19/15/35 18/16/36
f 8/33/37 7/34/38 20/35/39 19/36/40
f 7/17/41 5/18/42 17/19/43 20/20/44
